# xmcd
#
# Track frame offsets:
#	150
#	21137
#	36192
#	52318
#	73755
#	87435
#	113322
#	132689
#	148048
#	157467
#	180313
#	206187
#	222378
#	238245
#	258499
#
# Disc length: 3746 seconds
#
# Revision: 0
# Processed by: cddbd v1.5.2PL0 Copyright (c) Steve Scherf et al.
# Submitted via: EasyCDDAExtractor 16.0.6.1
#
DISCID=f00ea00f
DTITLE=Σκουλάς Βασίλης - Στο ξέσπασμα του φεγγαριού-Β. Σκουλάς 2
DYEAR=2009
DGENRE=Έντεχνη
TTITLE0=Σκουλάς Βασίλης-Θαλασσινός Παντελής - Το άρωμα [Γ. Κουτσουρέλης-ίδιος 
TTITLE0=κ Πάρις Περυσινάκης]
TTITLE1=Σκουλάς Βασίλης - Στην αγκαλιά σου μιά βραδιά [Βασ. Σκουλάς]
TTITLE2=Σκουλάς Βασίλης-Πασχαλίδης Μίλτος - Ερωτόκριτος [άγνωστος-Βιτσέντζος Κ
TTITLE2=ορνάρος]
TTITLE3=Σκουλάς Βασίλης - Γαρδένια [Γιώργος Κουμιώτης]
TTITLE4=Σκουλάς Βασίλης - Μ' έκανες και σ' αγάπησα [Βαγγ. Μαρκογιαννάκης-Νίκος
TTITLE4=Μανιάς]
TTITLE5=Σκουλάς Βασίλης - Πού 'ναι ο καιρός που κάναμε [Β. Σκουλάς-ίδιος κ Γ. 
TTITLE5=Καράτζης]
TTITLE6=Σκουλάς Βασίλης - Στάλα τη στάλα [Βασ. Σκουλάς]
TTITLE7=Σκουλάς Βασίλης-Θαλασσινός Π.-Ανδρεάτος Γ. - Μαύρα μου μάτια [Κ. Βερνι
TTITLE7=δάκης-στ. παραδοσιακοί]
TTITLE8=Σκουλάς Βασίλης - Θυμιατό [Πάρις Περυσινάκης-ίδιος κ Γιώργος Χρονάκης]
TTITLE9=Σκουλάς Βασίλης - Ανάθεμά σε λογισμέ [Β. Σκουλας-Μήτσος Σταυρακάκης]
TTITLE10=Σκουλάς Βασίλης - Κολυμπαριανός σκοπός [Γ. Κουτσουρέλης/Ν. Σαριδάκης-
TTITLE10=ιδίων κ Σκουλά]
TTITLE11=Σκουλάς Βασίλης - Πολύ καιρό για μιά φιλιά [Βασ. Σκουλάς]
TTITLE12=Σκουλάς Βασίλης - Της νύχτας ο βασιλικός [Π. Θαλασσινός-Ηλ. Κατσούλης
TTITLE12=]
TTITLE13=Σκουλάς Βασίλης - Χαιρετισμοί [Β. Σκουλάς-Μήτσος Σταυρακάκης]
TTITLE14=Σκουλάς Βασίλης-Θαλασσινός Π.-Ανδρεάτος Γ. - Αρμενάκι Τσέγκα (Στης Γρ
TTITLE14=αμπούσας ακρωτήρι)[Κώστας Μουντάκης]
EXTD=
EXTT0=
EXTT1=
EXTT2=
EXTT3=
EXTT4=
EXTT5=
EXTT6=
EXTT7=
EXTT8=
EXTT9=
EXTT10=
EXTT11=
EXTT12=
EXTT13=
EXTT14=
PLAYORDER=
